<?xml version="1.0" encoding="utf-8"?>
<!-- Generator: Adobe Illustrator 24.2.1, SVG Export Plug-In . SVG Version: 6.00 Build 0)  -->
<svg version="1.1" id="Capa_1" xmlns="http://www.w3.org/2000/svg" xmlns:xlink="http://www.w3.org/1999/xlink" x="0px" y="0px"
	 viewBox="0 0 46 46" style="enable-background:new 0 0 46 46;" xml:space="preserve">
<style type="text/css">
	.st0{fill:#8AA4AF;}
</style>
<g>
	<path class="st0" d="M8.2,35.5l-1.8,0.9c-1.5-2.8-2.2-5.7-2.2-8.7c0-2.2,0.4-4.3,1.1-6.1l2,1c0.2,0.1,0.6,0.3,1,0.3
		c0.9,0,1.7-0.5,2.1-1.3c0.2-0.6,0.3-1.2,0.1-1.7c-0.2-0.6-0.6-1.1-1.1-1.3l-2-1c3-4.7,8-7.7,13.5-8.3v2.1c0,1.3,1,2.3,2.3,2.3
		c1.3,0,2.3-1,2.3-2.3V9.1c2,0.2,3.8,0.7,5.4,1.5c1.2,0.5,2.6,0,3.1-1.2c0.5-1.2,0-2.6-1.2-3.1c-3.2-1.4-6.3-2-9.6-2
		c-6.2,0-12,2.4-16.6,6.8c-4.4,4.4-6.8,10.3-6.8,16.6c0,4.7,1.4,9.2,4,13c0.4,0.6,1.1,1,1.9,1c0.3,0,0.6-0.1,0.8-0.2l3.9-1.9
		c0.6-0.3,1-0.7,1.2-1.3c0.2-0.6,0.1-1.2-0.2-1.8C10.6,35.4,9.3,35,8.2,35.5z"/>
	<path class="st0" d="M39.6,14.3c0.6-0.9,0.5-2.2-0.3-2.9c-0.8-0.8-2-0.9-2.9-0.3c-2.5,1.7-16.1,11-17.6,12.5
		c-1.1,1.1-1.7,2.6-1.7,4.2s0.6,3,1.7,4.2c1.1,1.1,2.6,1.7,4.2,1.7c1.6,0,3-0.6,4.2-1.8c1.1-1.2,6.8-9.4,11.6-16.3L39.6,14.3z
		 M22.2,28.5c-0.2-0.2-0.4-0.6-0.4-0.9s0.1-0.7,0.4-0.9c0.3-0.3,1.7-1.4,6.6-4.8c-1.9,2.7-4.4,6.2-4.8,6.6
		C23.4,29,22.7,29,22.2,28.5z"/>
	<path class="st0" d="M44.3,18.1c-0.2-0.6-0.7-1-1.3-1.2c-0.6-0.2-1.2-0.2-1.8,0c-0.6,0.2-1,0.7-1.2,1.3c-0.2,0.6-0.2,1.2,0,1.8
		c1.1,2.5,1.7,5.1,1.7,7.7c0,3.2-0.7,6.1-2.2,8.7l-1.8-0.9c-1.1-0.5-2.5,0-3.1,1.1c-0.5,1.1,0,2.5,1,3.1l3.7,1.8
		c0.2,0.1,0.6,0.3,1,0.3c0.7,0,1.4-0.3,1.9-1c2.6-4,4-8.4,4-13C46.3,24.2,45.6,21,44.3,18.1z"/>
</g>
</svg>
