<svg enable-background="new -21 1 46 46" viewBox="-21 1 46 46" xmlns="http://www.w3.org/2000/svg"><g fill="#8aa4af"><path d="m12.5 30.8v-5.4h-11.9v-7h11.9v-5.3l9.6 8.8z"/><path d="m13.3 30.8c0-1.6 0-3.1 0-4.7 0-.2 0-.4 0-.7 0-.4-.4-.8-.8-.8-1.3 0-2.7 0-4 0-2.1 0-4.3 0-6.4 0-.5 0-1 0-1.5 0l.8.8c0-.8 0-1.6 0-2.4 0-1.2 0-2.5 0-3.7 0-.3 0-.6 0-.9-.3.3-.5.5-.8.8h4 6.4 1.5c.4 0 .8-.4.8-.8 0-1.6 0-3.1 0-4.7 0-.2 0-.4 0-.7-.5.2-.9.4-1.4.6 1.1 1 2.2 2 3.3 3 1.7 1.6 3.4 3.2 5.2 4.7.4.4.8.7 1.2 1.1 0-.4 0-.8 0-1.1-1.1 1-2.2 2-3.3 3-1.7 1.6-3.4 3.2-5.2 4.7-.4.4-.8.7-1.2 1.1-.3.3-.3.9 0 1.1.3.3.8.3 1.1 0l3.3-3c1.7-1.6 3.4-3.2 5.2-4.7.4-.4.8-.7 1.2-1.1.3-.3.3-.9 0-1.1-1.1-1-2.2-2-3.3-3-1.7-1.6-3.4-3.2-5.2-4.7-.4-.4-.8-.7-1.2-1.1-.5-.5-1.4-.1-1.4.6v4.7.7c.3-.3.5-.5.8-.8-1.3 0-2.7 0-4 0-2.1 0-4.3 0-6.4 0-.5 0-1 0-1.5 0-.4 0-.8.4-.8.8v2.4 3.7.9c0 .4.4.8.8.8h4 6.4 1.5c-.3-.3-.5-.5-.8-.8v4.7.7c0 .4.4.8.8.8.5-.2.9-.5.9-.9z"/><path d="m-3.6 46v-5.3h11.8v-7h-11.8v-5.4l-10.1 8.9z"/><path d="m-2.8 46c0-1.6 0-3.1 0-4.7 0-.2 0-.4 0-.7-.3.3-.5.5-.8.8h4 6.4 1.5c.4 0 .8-.4.8-.8 0-.8 0-1.6 0-2.4 0-1.2 0-2.5 0-3.7 0-.3 0-.6 0-.9 0-.4-.4-.8-.8-.8-1.3 0-2.7 0-4 0-2.1 0-4.3 0-6.4 0-.5 0-1 0-1.5 0l.8.8c0-1.6 0-3.1 0-4.7 0-.2 0-.4 0-.7s-.2-.6-.5-.7-.6-.1-.9.2c-1.1 1-2.3 2-3.4 3-1.8 1.6-3.6 3.2-5.4 4.8-.4.4-.8.7-1.2 1.1-.3.3-.3.9 0 1.1 1.1 1 2.3 2 3.4 3 1.8 1.6 3.6 3.2 5.4 4.8.4.4.8.7 1.2 1.1.3.3.8.3 1.1 0s.3-.8 0-1.1c-1.1-1-2.3-2-3.4-3-1.8-1.6-3.6-3.2-5.4-4.8-.4-.4-.8-.7-1.2-1.1v1.1c1.1-1 2.3-2 3.4-3l5.4-4.8c.4-.4.8-.7 1.2-1.1-.5-.2-.9-.4-1.4-.6v4.7.7c0 .4.4.8.8.8h4 6.4 1.5c-.3-.3-.5-.5-.8-.8v2.4 3.7.9l.8-.8c-1.3 0-2.7 0-4 0-2.1 0-4.3 0-6.4 0-.5 0-1 0-1.5 0-.4 0-.8.4-.8.8v4.7.7c0 .4.4.8.8.8.5 0 .9-.4.9-.8z"/><path d="m16.5 34.8h-4v3h7.1v-6.2h-3.1z"/><path d="m19.5 1h-4.2-6.9-3.3-9-3.3-6.8-4.3v1.1 32.6h3.1v-8-22.6h7.6v8.4h16.5v-8.4h7.6v8.2h3.1v-10.2zm-13.7 8.4h-10.3v-5.3h10.3z"/></g></svg>