<?xml version="1.0" encoding="utf-8"?>
<!-- Generator: Adobe Illustrator 24.2.1, SVG Export Plug-In . SVG Version: 6.00 Build 0)  -->
<svg version="1.1" id="Layer_1" xmlns="http://www.w3.org/2000/svg" xmlns:xlink="http://www.w3.org/1999/xlink" x="0px" y="0px"
	 viewBox="0 0 1000 1000" style="enable-background:new 0 0 1000 1000;" xml:space="preserve">
<style type="text/css">
	.st0{fill:#8FA2AB;}
</style>
<path class="st0" d="M511.1,519.6l5.3,11.9c8.1-1.4,17.9-1.9,29.1-0.9l4.6,19.8c-8.8-1.1-18.2-2.1-26.5-0.4l-3.2,0.8
	c-15.9,4.2-10.9,19.4,3.4,23.1c23.4,5.4,51.3,7.1,62.4,31.7c8.9,19.9-1.4,33.4-18.6,40l5.3,11.9l-11.2,2.3l-5.1-11.3
	c-11.6,2.1-24.9,1.8-37.1-1.4l-3.4-20.1c10.1,1.6,22.6,3,32.2,1l6.4-2.1c11.4-5.7,7.9-20-9.1-23.4c-12.6-2.9-46.1-0.7-58.6-28.6
	c-7-15.7-1.8-32.2,18.4-39.7l-5.5-12.4L511.1,519.6 M642.4,575.1c-24.3-56.6-92.1-94.5-151.5-84.6c-59.4,9.9-87.9,63.8-63.6,120.5
	c25.6,59.8,99.2,98,159.8,83C640.8,680.5,665.5,629,642.4,575.1z M781.6,381.4L911,664.4c-186.7,145.1-434.9-1.3-616.9,153.3
	L164.7,534.7C334.6,370.5,569.3,519.3,781.6,381.4z M912.4,794.3C676.7,929.7,486.3,745.4,242.3,1000L87.6,657.6l48.2-50.2
	L266.6,896l-0.1,0.3c255.8-192.2,384.7-40.4,622.3-156.7C899,761.8,908.3,785.3,912.4,794.3z"/>
<path class="st0" d="M367.1,182.4h81.2c4,0,7.3,3.3,7.3,7.3v170.9c0,4,3.3,7.3,7.3,7.3h144.4c4,0,7.3-3.3,7.3-7.3V189.7
	c0-4,3.3-7.3,7.3-7.3h81.2c6.5,0,9.7-7.8,5.1-12.4L540.1,2.1c-2.8-2.8-7.4-2.8-10.3,0L362,170C357.4,174.6,360.6,182.4,367.1,182.4z
	"/>
</svg>
