<svg enable-background="new -21 1 46 46" viewBox="-21 1 46 46" xmlns="http://www.w3.org/2000/svg"><g fill="#8aa4af" transform="translate(1)"><path d="m10.4 30.4c1.1-.3 2-.9 2.5-1.9 1-2.2 0-3.7-2.2-4.8-.3-.2-.2-.1-1.1-.5-.8-.4-.8-.3-1-.5-1.3-.7-1.7-1.2-1.3-2.1.5-1.1 2.9-1 3.7-.4l.8.6 1.2-1.8-.8-.6c-.5-.3-1.1-.6-1.8-.7v-1.8h-2v1.8c-1.2.2-2.3.8-2.9 2-1 2.2 0 3.7 2.2 4.8.3.2.2.1 1.1.5.8.4.8.3 1 .5 1.3.7 1.7 1.3 1.3 2.1-.5 1.1-2.9 1-3.7.4l-.8-.6-1.2 1.7.8.6c.6.4 1.3.7 2.2.8v1.7h2z"/><path d="m-10.1 13.8h10.2v2h-10.2z"/><path d="m-10.1 19.9h10.2v2h-10.2z"/><path d="m-10.1 26h10.2v2h-10.2z"/><path d="m-10.1 32.2h10.2v2h-10.2z"/><path d="m-5.6 41.4-5.5 5.6-1.5-1.5 5.6-5.5z"/><path d="m-9.7 45.5-1.4 1.5-5.1-5.2v-.8l1-1z"/><path d="m2.6 41.4-5.5 5.6-1.5-1.5 5.6-5.5z"/><path d="m-7 40 5.5 5.5-1.4 1.5-5.6-5.6z"/><path d="m10.8 41.4-5.5 5.6-1.5-1.5 5.6-5.5z"/><path d="m1.2 40 5.5 5.5-1.4 1.5-5.6-5.6z"/><path d="m12 45.5 1.5 1.5 5.1-5.2v-.8l-1-1z"/><path d="m9.4 40 5.5 5.5-1.4 1.5-5.6-5.6z"/><path d="m-5.6 2.5-5.5 5.5-1.5-1.4 5.6-5.6z"/><path d="m-9.7 6.6-1.4 1.4-5.1-5.1v-.8l1-1.1z"/><path d="m2.6 2.5-5.5 5.5-1.5-1.4 5.6-5.6z"/><path d="m-7 1 5.5 5.6-1.4 1.4-5.6-5.5z"/><path d="m10.8 2.5-5.5 5.5-1.5-1.4 5.6-5.6z"/><path d="m1.2 1 5.5 5.6-1.4 1.4-5.6-5.5z"/><path d="m12 6.6 1.5 1.4 5.1-5.1v-.8l-1-1.1z"/><path d="m-16.2 2.5h2v38.9h-2z"/><path d="m16.5 2.5h2v38.9h-2z"/><path d="m9.4 1 5.5 5.6-1.4 1.4-5.6-5.5z"/></g></svg>