<?xml version="1.0" encoding="utf-8"?>
<!-- Generator: Adobe Illustrator 24.2.1, SVG Export Plug-In . SVG Version: 6.00 Build 0)  -->
<svg version="1.1" id="Layer_1" xmlns="http://www.w3.org/2000/svg" xmlns:xlink="http://www.w3.org/1999/xlink" x="0px" y="0px"
	 viewBox="0 0 46 46" style="enable-background:new 0 0 46 46;" xml:space="preserve">
<style type="text/css">
	.st0{fill:#8AA4AF;}
</style>
<path class="st0" d="M33.7,2.3h-7.1h-7.1h-7.1c-0.7,0-1.2,0.5-1.2,1.2v19.1c0,0.7,0.5,1.2,1.2,1.2h21.4c0.7,0,1.2-0.5,1.2-1.2V3.5
	C34.9,2.8,34.3,2.3,33.7,2.3z M25.3,4.7V9l-2-0.7c-0.1,0-0.2-0.1-0.4-0.1c-0.1,0-0.3,0-0.4,0.1l-2,0.7V4.7H25.3z M32.5,21.4H13.4
	V4.7h4.8v6c0,0.4,0.2,0.7,0.5,1c0.3,0.2,0.7,0.3,1.1,0.2l3.2-1.1l3.2,1.1c0.1,0,0.3,0.1,0.4,0.1c0.2,0,0.5-0.1,0.7-0.2
	c0.3-0.2,0.5-0.6,0.5-1v-6h4.8v16.6L32.5,21.4z"/>
<path class="st0" d="M22.9,21.4h-7.1H8.7H1.6c-0.7,0-1.2,0.5-1.2,1.2v19.1c0,0.7,0.5,1.2,1.2,1.2H23c0.7,0,1.2-0.5,1.2-1.2V22.6
	C24.1,21.9,23.6,21.4,22.9,21.4z M14.6,23.8v4.3l-2-0.7c-0.1,0-0.2-0.1-0.4-0.1c-0.1,0-0.3,0-0.4,0.1l-2,0.7v-4.3H14.6z M21.8,40.4
	H2.7V23.7h4.8v6c0,0.4,0.2,0.7,0.5,1c0.3,0.2,0.7,0.3,1.1,0.2l3.2-1.1l3.2,1.1c0.1,0,0.3,0.1,0.4,0.1c0.2,0,0.5-0.1,0.7-0.2
	c0.3-0.2,0.5-0.6,0.5-1v-6h4.8L21.8,40.4z"/>
<path class="st0" d="M44.4,21.4h-7.1h-7.1h-7.1c-0.7,0-1.2,0.5-1.2,1.2v19.1c0,0.7,0.5,1.2,1.2,1.2h21.4c0.7,0,1.2-0.5,1.2-1.2V22.6
	C45.6,21.9,45.1,21.4,44.4,21.4z M36.1,23.8v4.3l-2-0.7c-0.1,0-0.2-0.1-0.4-0.1s-0.3,0-0.4,0.1l-2,0.7v-4.3H36.1z M43.2,40.4H24.1
	V23.7h4.8v6c0,0.4,0.2,0.7,0.5,1c0.3,0.2,0.7,0.3,1.1,0.2l3.2-1.1l3.2,1.1c0.1,0,0.3,0.1,0.4,0.1c0.2,0,0.5-0.1,0.7-0.2
	c0.3-0.2,0.5-0.6,0.5-1v-6h4.8L43.2,40.4z"/>
</svg>
