<svg enable-background="new -276 378 46 46" viewBox="-276 378 46 46" xmlns="http://www.w3.org/2000/svg"><path d="m-270.6 399.1c-1.2-.7-2-2-2-3.4v-1.3h7.8v1.3c0 2.2-1.7 3.9-3.9 3.9-.6 0-1.3-.2-1.9-.5zm15.2-15.1 1 7.8h-7.5l1-7.8zm17.2 0 3.9 7.8h-7.3l-1.9-7.8zm-23.9 10.4h7.8v1.2c0 1.9-1.4 3.6-3.3 3.9-2.3.4-4.4-1.3-4.5-3.5 0-.1 0-.2 0-.3zm10.4 0h7.8v1.2c0 2.1-1.6 3.8-3.6 4-2.3.2-4.2-1.6-4.2-3.9zm5.5-10.4 1.9 7.8h-7.6l-1-7.8zm-15.9 16.9c1.1.8 2.4 1.3 3.9 1.3 2.1 0 4-1 5.2-2.6 1.2 1.6 3.1 2.6 5.2 2.6 1.5 0 2.8-.5 3.9-1.3v9.1h-18.2zm20.8-6.5h7.8v1.3c0 .7-.2 1.4-.5 1.9-.3.6-.8 1.1-1.4 1.4s-1.3.5-1.9.5c-2.2 0-3.9-1.7-3.9-3.9v-1.2zm-31.2 26h39v-2.6-16.9c.5-.4.9-.8 1.3-1.3 0 0 .6-.7 1.2-2.6.1-.4.1-.9.1-1.3v-2.6c0-.2 0-.4-.1-.6l-4.3-8.5c-.4-.7-1-2.1-1-2.1-.4-.5-.7-.5-1.4-.5s-30.6 0-30.6 0-1-.2-1.6 1l-5.1 10.1c-.1.2-.1.4-.1.6v2.6c0 2.1 1 4 2.6 5.2v16.9zm4.7-36.4h4.2l-1 7.8h-7.1zm-2.1 18.1c.4.1.9.1 1.3.1 1.5 0 2.8-.5 3.9-1.3v10.4c0 .7.6 1.3 1.3 1.3h20.8c.7 0 1.3-.6 1.3-1.3v-10.4c1.1.8 2.4 1.3 3.9 1.3.4 0 .9 0 1.3-.1v15.7h-33.8z" fill="#b8c7ce"/></svg>