<svg enable-background="new 0 0 46 46" viewBox="0 0 46 46" xmlns="http://www.w3.org/2000/svg"><g fill="#8aa4af"><path d="m3.9 19.4h17.5c.7 0 1.3-.6 1.3-1.3v-14.9c0-.7-.6-1.3-1.3-1.3h-17.5c-.7 0-1.3.6-1.3 1.3v14.8c-.1.8.5 1.4 1.3 1.4zm5.4-16.2h6.7v4c0 .5-.3.8-.7.8h-5.4c-.3 0-.6-.3-.6-.7z"/><path d="m34.2 18.3c4.7 0 8.6-3.8 8.6-8.6 0-4.7-3.8-8.6-8.6-8.6s-8.6 3.8-8.6 8.6 3.9 8.6 8.6 8.6zm-3.3-5.2c.1-.3.2-.6.3-.9.1-.4.2-.4.5-.2.6.3 1.1.5 1.8.5.4 0 .8 0 1.2-.2.7-.3.8-1.1.2-1.6-.2-.2-.4-.3-.7-.4-.6-.3-1.2-.5-1.8-.8-.9-.5-1.5-1.3-1.4-2.4.1-1.3.8-2.1 2-2.5.5-.2.5-.2.5-.7 0-.2 0-.3 0-.5 0-.4.1-.4.4-.5h.3c.8 0 .8 0 .8.8 0 .6 0 .6.6.7.4.1.8.2 1.2.4.2.1.3.3.2.5-.1.3-.2.7-.3 1s-.2.4-.5.2c-.6-.3-1.3-.4-2-.4-.2 0-.4 0-.5.1-.6.3-.7.9-.2 1.3.3.2.6.4.9.5.5.2 1.1.4 1.6.7 1.6.9 2 2.9.9 4.3-.4.5-.9.8-1.6 1-.3.1-.4.2-.4.5v.8c0 .2-.1.4-.4.4s-.6 0-.9 0-.4-.2-.4-.4 0-.4 0-.6c0-.4 0-.5-.5-.5-.6-.1-1.1-.2-1.6-.5-.2-.1-.3-.2-.2-.6z"/><path d="m45.1 37.4h-1.4c.4-.2.6-.7.6-1.1v-14.2c0-.7-.6-1.3-1.3-1.3h-17.6c-.7 0-1.3.6-1.3 1.3v14.2c0 .5.2.9.6 1.1h-.8-1.5-.2c.4-.2.6-.7.6-1.1v-14.2c0-.7-.6-1.3-1.3-1.3h-17.6c-.7 0-1.3.6-1.3 1.3v14.2c0 .5.2.9.6 1.1h-2c-.4 0-.8.3-.8.8v3c0 .4.3.8.8.8h.8v1.5h1.5v-1.5h1.5v1.5h1.5v-1.5h33.4v1.5h1.5v-1.5h1.5v1.5h1.5v-1.5h.8c.4 0 .8-.3.8-.8v-3c-.2-.5-.5-.8-.9-.8zm-14.3-15.3h6.7v4c0 .4-.3.7-.7.7h-5.4c-.4 0-.7-.3-.7-.7v-4zm-21.5 0h6.7v4c0 .4-.3.7-.7.7h-5.4c-.4 0-.7-.3-.7-.7v-4zm35 18.3h-42.5v-1.5h42.5z"/></g></svg>